<?xml version="1.0" encoding="utf-8"?>
<!-- Generator: Adobe Illustrator 27.0.0, SVG Export Plug-In . SVG Version: 6.00 Build 0)  -->
<svg version="1.1" id="Layer_1" xmlns="http://www.w3.org/2000/svg" xmlns:xlink="http://www.w3.org/1999/xlink" x="0px" y="0px"
	 viewBox="0 0 864 864" style="enable-background:new 0 0 864 864;" xml:space="preserve">
<style type="text/css">
	.st0{fill:#770000;}
	.st1{fill:#7F20FF;}
	.st2{fill:#592727;}
	.st3{fill:#FFFFFF;}
	.st4{fill:#9839FF;}
	.st5{fill:#993AFF;}
	.st6{fill:none;stroke:#701818;stroke-miterlimit:10;}
	.st7{fill:#2BB6FF;}
	.st8{fill:#2DB6FF;}
</style>
<g>
	<path class="st0" d="M187,67.9h-3.6c0.6,0,1.2,0,1.8,0C185.8,67.9,186.4,67.9,187,67.9z"/>
	<path class="st1" d="M649.1,352.3h-73.8v301.7c0,78.5-63.7,142.2-142.2,142.2c-78.5,0-142.2-63.7-142.2-142.2c0-1.2,0-2.5,0-3.7
		v-298h-75.7l3.7-4l72-77.7l34.6-37.4l61-65.8c0,0,7.3-8.5,19-19.9c7.4-7.2,16.4-15.6,26.5-23.7c10.2,8.3,19.3,16.6,26.7,23.7
		c11.9,11.5,19.2,19.9,19.2,19.9l61.2,66.1l36.3,39.2l70,75.5L649.1,352.3z"/>
	<path class="st2" d="M681,67.9h-3.6c0.6,0,1.2,0,1.8,0C679.8,67.9,680.4,67.9,681,67.9z"/>
	<path class="st3" d="M681,352.3L681,352.3l-1.7,0C679.8,352.3,680.4,352.3,681,352.3z"/>
	<path class="st4" d="M184.6,352.3h-1.3v0C183.7,352.3,184.1,352.3,184.6,352.3z"/>
	<path class="st5" d="M431.9,123.8c-10,8.2-19.1,16.5-26.5,23.7c-11.6,11.4-19,19.9-19,19.9l-61,65.8l-34.6,37.4l-72,77.7l-3.7,4
		h-30.6c-0.4,0-0.9,0-1.3,0C105.6,351.2,43,288,43,210.1c0-77.9,62.6-141.2,140.2-142.2h97.2c18.6,1,48.9,4.8,86.9,17.4
		C389.9,92.8,412.8,108.3,431.9,123.8z"/>
	<path class="st4" d="M641.1,67.9c0,0-0.2,0-0.5,0H280.4L641.1,67.9z"/>
	<path class="st6" d="M649.4,352.3"/>
	<path class="st7" d="M821.4,210.1c0,77.9-62.7,141.3-140.5,142.2c-0.6,0-1.2,0-1.7,0h-30.2c0,0-178.6-193.2-190.5-204.7
		c-7.4-7.1-16.5-15.4-26.7-23.7c-19.1-15.5-42-31-64.6-38.5c-38-12.6-68.2-16.4-86.9-17.4H681C758.7,68.8,821.4,132.1,821.4,210.1z"
		/>
	<path class="st8" d="M681,352.3L681,352.3l-1.7,0C679.8,352.3,680.4,352.3,681,352.3z"/>
</g>
</svg>
